<svg width="46" height="46" viewBox="0 0 46 46" fill="none" xmlns="http://www.w3.org/2000/svg">
<path d="M17.9979 42.8389L34.7869 26.0499C34.921 25.9161 35.0242 25.7545 35.0893 25.5766C35.1545 25.3987 35.1799 25.2087 35.1639 25.0199L34.1799 13.3679C34.1546 13.0653 34.0241 12.7811 33.8111 12.5647C33.5981 12.3482 33.3161 12.2132 33.0139 12.1829L21.1949 11.0399C21.0038 11.0219 20.8111 11.0463 20.6304 11.1113C20.4498 11.1763 20.2858 11.2803 20.1499 11.4159L3.3649 28.2009C3.2441 28.3217 3.14828 28.465 3.0829 28.6228C3.01752 28.7805 2.98389 28.9496 2.98389 29.1204C2.98389 29.2912 3.01752 29.4603 3.0829 29.6181C3.14828 29.7758 3.2441 29.9192 3.3649 30.0399V30.0399L16.1649 42.8399C16.4086 43.0819 16.7382 43.2177 17.0816 43.2175C17.425 43.2173 17.7545 43.0812 17.9979 42.8389V42.8389Z" stroke="#896FDA" stroke-width="2" stroke-linecap="round" stroke-linejoin="round"/>
<path d="M28.5431 17.543C29.8263 18.3273 31.3011 18.7422 32.8051 18.7422C34.309 18.7422 35.7838 18.3273 37.0671 17.543C41.4671 14.797 44.6761 9.13401 42.1011 5.01401C39.5261 0.894007 30.4951 2.14001 26.6011 11.558" stroke="#896FDA" stroke-width="2" stroke-linecap="round" stroke-linejoin="round"/>
<path d="M18.7062 29.9065L18.8985 30.0989C19.2965 30.4973 19.8365 30.7213 20.3996 30.7217C20.9628 30.7221 21.503 30.4988 21.9016 30.101V30.101C22.3003 29.7023 22.5243 29.1615 22.5243 28.5977C22.5243 28.0338 22.3003 27.4931 21.9016 27.0944L21.8761 27.0689C21.4774 26.6702 20.9367 26.4462 20.3728 26.4462C19.809 26.4462 19.2682 26.6702 18.8695 27.0689V27.0689C18.4715 27.4673 17.9316 27.6913 17.3684 27.6917C16.8053 27.6921 16.265 27.4689 15.8664 27.071L15.841 27.0456C15.4426 26.6476 15.2186 26.1076 15.2182 25.5445C15.2178 24.9813 15.441 24.4411 15.8389 24.0425V24.0425C16.036 23.8452 16.2701 23.6886 16.5277 23.5817C16.7854 23.4749 17.0615 23.4198 17.3405 23.4197C17.6194 23.4196 17.8956 23.4743 18.1533 23.581C18.4111 23.6876 18.6453 23.8439 18.8426 24.0411L19.0371 24.2355" stroke="#F57A74" stroke-width="2" stroke-linecap="round" stroke-linejoin="round"/>
<path d="M15.8415 24.0354L14.9683 23.1621" stroke="#F57A74" stroke-width="2" stroke-linecap="round" stroke-linejoin="round"/>
<path d="M22.7771 30.9704L21.9038 30.0972" stroke="#F57A74" stroke-width="2" stroke-linecap="round" stroke-linejoin="round"/>
</svg>
