<svg xmlns="http://www.w3.org/2000/svg" xmlns:xlink="http://www.w3.org/1999/xlink" width="500" zoomAndPan="magnify" viewBox="0 0 375 374.999991" height="500" preserveAspectRatio="xMidYMid meet" version="1.0"><defs><g/><clipPath id="f63f5d1de6"><path d="M 67 147 L 99 147 L 99 180 L 67 180 Z M 67 147 " clip-rule="nonzero"/></clipPath><clipPath id="94e965625a"><path d="M 66.261719 125.503906 L 177.195312 169.261719 L 133.4375 280.195312 L 22.503906 236.4375 Z M 66.261719 125.503906 " clip-rule="nonzero"/></clipPath><clipPath id="0d71ae50e6"><path d="M 66.261719 125.503906 L 177.195312 169.261719 L 133.4375 280.195312 L 22.503906 236.4375 Z M 66.261719 125.503906 " clip-rule="nonzero"/></clipPath><clipPath id="adb78174b6"><path d="M 56 136 L 110 136 L 110 191 L 56 191 Z M 56 136 " clip-rule="nonzero"/></clipPath><clipPath id="90301cd7e1"><path d="M 66.261719 125.503906 L 177.195312 169.261719 L 133.4375 280.195312 L 22.503906 236.4375 Z M 66.261719 125.503906 " clip-rule="nonzero"/></clipPath><clipPath id="ae570e5d23"><path d="M 66.261719 125.503906 L 177.195312 169.261719 L 133.4375 280.195312 L 22.503906 236.4375 Z M 66.261719 125.503906 " clip-rule="nonzero"/></clipPath><clipPath id="ba8517c23f"><path d="M 78 162 L 155 162 L 155 259 L 78 259 Z M 78 162 " clip-rule="nonzero"/></clipPath><clipPath id="602291f946"><path d="M 66.261719 125.503906 L 177.195312 169.261719 L 133.4375 280.195312 L 22.503906 236.4375 Z M 66.261719 125.503906 " clip-rule="nonzero"/></clipPath><clipPath id="5cb0cada6d"><path d="M 66.261719 125.503906 L 177.195312 169.261719 L 133.4375 280.195312 L 22.503906 236.4375 Z M 66.261719 125.503906 " clip-rule="nonzero"/></clipPath><clipPath id="41aae4ee2b"><path d="M 78 163 L 110 163 L 110 259 L 78 259 Z M 78 163 " clip-rule="nonzero"/></clipPath><clipPath id="d42e26dcc8"><path d="M 66.261719 125.503906 L 177.195312 169.261719 L 133.4375 280.195312 L 22.503906 236.4375 Z M 66.261719 125.503906 " clip-rule="nonzero"/></clipPath><clipPath id="18067158ee"><path d="M 66.261719 125.503906 L 177.195312 169.261719 L 133.4375 280.195312 L 22.503906 236.4375 Z M 66.261719 125.503906 " clip-rule="nonzero"/></clipPath></defs><g fill="#000000" fill-opacity="1"><g transform="translate(114.982423, 183.275614)"><g><path d="M 9.855469 0.214844 C 14.308594 0.214844 17.460938 -2.808594 17.460938 -6.828125 L 17.460938 -26.710938 L 13.703125 -26.710938 L 13.703125 -7.132812 C 13.703125 -4.234375 11.757812 -3.113281 9.855469 -3.113281 C 7.953125 -3.113281 6.007812 -4.234375 6.007812 -7.132812 L 6.007812 -26.710938 L 2.246094 -26.710938 L 2.246094 -6.828125 C 2.246094 -2.808594 5.402344 0.214844 9.855469 0.214844 Z M 9.855469 0.214844 "/></g></g></g><g fill="#000000" fill-opacity="1"><g transform="translate(133.825686, 183.275614)"><g><path d="M 2.246094 0 L 6.007812 0 L 6.007812 -26.710938 L 2.246094 -26.710938 Z M 2.246094 0 "/></g></g></g><g fill="#000000" fill-opacity="1"><g transform="translate(141.215967, 183.275614)"><g><path d="M 9.769531 0 L 11.582031 0 L 11.582031 -3.328125 L 10.890625 -3.328125 C 8.082031 -3.328125 7.648438 -5.101562 7.648438 -7.175781 L 7.648438 -16.554688 L 11.582031 -16.554688 L 11.582031 -19.882812 L 7.648438 -19.882812 L 7.648438 -25.585938 L 3.890625 -25.585938 L 3.890625 -19.882812 L 0.734375 -19.882812 L 0.734375 -16.554688 L 3.890625 -16.554688 L 3.890625 -6.871094 C 3.890625 -1.339844 6.136719 0 9.769531 0 Z M 9.769531 0 "/></g></g></g><g fill="#000000" fill-opacity="1"><g transform="translate(153.317106, 183.275614)"><g><path d="M 2.246094 -21.566406 L 6.007812 -21.566406 L 6.007812 -26.410156 L 2.246094 -26.410156 Z M 2.246094 0 L 6.007812 0 L 6.007812 -19.882812 L 2.246094 -19.882812 Z M 2.246094 0 "/></g></g></g><g fill="#000000" fill-opacity="1"><g transform="translate(160.707385, 183.275614)"><g><path d="M 2.246094 0 L 6.007812 0 L 6.007812 -13.398438 C 6.007812 -15.558594 7.433594 -16.769531 9.464844 -16.769531 C 11.152344 -16.769531 12.144531 -15.648438 12.144531 -13.398438 L 12.144531 0 L 15.90625 0 L 15.90625 -13.875 C 15.90625 -14.351562 15.863281 -14.78125 15.820312 -15.214844 C 16.292969 -16.164062 17.246094 -16.769531 18.5 -16.769531 C 20.445312 -16.769531 21.609375 -15.34375 21.609375 -13.441406 L 21.609375 0 L 25.371094 0 L 25.371094 -14.089844 C 25.371094 -17.546875 23.554688 -20.097656 19.839844 -20.097656 C 18.84375 -20.097656 16.640625 -20.011719 14.824219 -18.195312 C 13.917969 -19.492188 12.492188 -20.097656 10.546875 -20.097656 C 9.464844 -20.097656 8.210938 -20.097656 6.007812 -18.5 L 5.53125 -19.882812 L 2.246094 -19.882812 Z M 2.246094 0 "/></g></g></g><g fill="#000000" fill-opacity="1"><g transform="translate(187.243595, 183.275614)"><g><path d="M 7.996094 0.214844 C 9.078125 0.214844 10.332031 0.214844 12.535156 -1.382812 L 13.011719 0 L 16.292969 0 L 16.292969 -19.882812 L 13.011719 -19.882812 L 12.535156 -18.5 C 10.332031 -20.097656 9.078125 -20.097656 7.996094 -20.097656 C 4.539062 -20.097656 2.03125 -18.109375 2.03125 -13.875 L 2.03125 -6.007812 C 2.03125 -1.773438 4.539062 0.214844 7.996094 0.214844 Z M 9.078125 -3.113281 C 7.390625 -3.113281 5.792969 -4.234375 5.792969 -6.484375 L 5.792969 -13.398438 C 5.792969 -15.648438 7.390625 -16.769531 9.078125 -16.769531 C 11.109375 -16.769531 12.535156 -15.558594 12.535156 -13.398438 L 12.535156 -6.484375 C 12.535156 -4.320312 11.109375 -3.113281 9.078125 -3.113281 Z M 9.078125 -3.113281 "/></g></g></g><g fill="#000000" fill-opacity="1"><g transform="translate(204.919949, 183.275614)"><g><path d="M 9.769531 0 L 11.582031 0 L 11.582031 -3.328125 L 10.890625 -3.328125 C 8.082031 -3.328125 7.648438 -5.101562 7.648438 -7.175781 L 7.648438 -16.554688 L 11.582031 -16.554688 L 11.582031 -19.882812 L 7.648438 -19.882812 L 7.648438 -25.585938 L 3.890625 -25.585938 L 3.890625 -19.882812 L 0.734375 -19.882812 L 0.734375 -16.554688 L 3.890625 -16.554688 L 3.890625 -6.871094 C 3.890625 -1.339844 6.136719 0 9.769531 0 Z M 9.769531 0 "/></g></g></g><g fill="#000000" fill-opacity="1"><g transform="translate(217.021086, 183.275614)"><g><path d="M 9.078125 0.214844 C 12.1875 0.214844 15.472656 -1.773438 15.90625 -5.1875 L 12.1875 -5.1875 C 11.714844 -3.933594 10.417969 -3.113281 9.078125 -3.113281 C 7.132812 -3.113281 5.792969 -4.625 5.792969 -6.570312 L 5.792969 -8.558594 L 16.035156 -8.558594 L 16.035156 -13.3125 C 16.035156 -17.160156 13.183594 -20.097656 9.078125 -20.097656 C 4.96875 -20.097656 2.03125 -17.160156 2.03125 -13.3125 L 2.03125 -6.136719 C 2.03125 -2.335938 5.273438 0.214844 9.078125 0.214844 Z M 5.792969 -11.886719 L 5.792969 -13.441406 C 5.792969 -15.34375 7.089844 -16.769531 9.035156 -16.769531 C 11.023438 -16.769531 12.273438 -15.34375 12.273438 -13.441406 L 12.273438 -11.886719 Z M 5.792969 -11.886719 "/></g></g></g><g fill="#000000" fill-opacity="1"><g transform="translate(234.222046, 183.275614)"><g><path d="M 2.246094 0 L 6.007812 0 L 6.007812 -6.957031 L 9.636719 -6.957031 C 13.441406 -6.957031 17.03125 -9.550781 17.03125 -14.089844 L 17.03125 -19.535156 C 17.03125 -24.117188 13.441406 -26.710938 9.636719 -26.710938 L 2.246094 -26.710938 Z M 6.007812 -10.285156 L 6.007812 -23.382812 L 9.464844 -23.382812 C 11.28125 -23.382812 13.269531 -21.914062 13.269531 -18.929688 L 13.269531 -14.78125 C 13.269531 -11.757812 11.28125 -10.285156 9.464844 -10.285156 Z M 6.007812 -10.285156 "/></g></g></g><g fill="#000000" fill-opacity="1"><g transform="translate(251.984844, 183.275614)"><g><path d="M 9.636719 0.214844 C 14.089844 0.214844 17.246094 -2.808594 17.246094 -6.828125 L 17.246094 -19.96875 C 17.246094 -23.988281 14.089844 -27.015625 9.636719 -27.015625 C 5.1875 -27.015625 2.03125 -23.988281 2.03125 -19.96875 L 2.03125 -6.828125 C 2.03125 -2.808594 5.1875 0.214844 9.636719 0.214844 Z M 9.636719 -3.113281 C 7.738281 -3.113281 5.792969 -4.234375 5.792969 -7.132812 L 5.792969 -19.667969 C 5.792969 -22.5625 7.738281 -23.6875 9.636719 -23.6875 C 11.539062 -23.6875 13.484375 -22.5625 13.484375 -19.667969 L 13.484375 -7.132812 C 13.484375 -4.234375 11.539062 -3.113281 9.636719 -3.113281 Z M 9.636719 -3.113281 "/></g></g></g><g fill="#000000" fill-opacity="1"><g transform="translate(270.395926, 183.275614)"><g><path d="M 9.507812 0.214844 C 13.398438 0.214844 16.855469 -1.773438 16.855469 -6.613281 C 16.855469 -15.820312 5.359375 -14.003906 5.359375 -20.359375 C 5.359375 -22.304688 6.050781 -23.644531 8.730469 -23.644531 C 10.71875 -23.644531 12.144531 -22.304688 12.230469 -20.269531 L 12.230469 -19.796875 L 15.992188 -19.796875 L 15.992188 -20.359375 C 15.992188 -22.390625 14.480469 -27.015625 8.816406 -27.015625 C 2.722656 -27.015625 1.597656 -23.167969 1.597656 -20.054688 C 1.597656 -11.367188 13.097656 -12.835938 13.097656 -6.570312 C 13.097656 -6.050781 13.097656 -3.113281 9.464844 -3.113281 C 6.09375 -3.113281 5.445312 -4.839844 5.359375 -6.613281 L 5.359375 -7.21875 L 1.597656 -7.21875 L 1.597656 -6.613281 C 1.902344 -1.46875 5.964844 0.214844 9.507812 0.214844 Z M 9.507812 0.214844 "/></g></g></g><g clip-path="url(#f63f5d1de6)"><g clip-path="url(#94e965625a)"><g clip-path="url(#0d71ae50e6)"><path fill="#2536a6" d="M 76.652344 149.234375 C 68.613281 152.726562 64.957031 161.996094 68.449219 170.035156 C 71.941406 178.074219 81.207031 181.730469 89.246094 178.238281 C 97.289062 174.746094 100.945312 165.480469 97.453125 157.441406 C 93.960938 149.398438 84.550781 145.808594 76.652344 149.234375 Z M 87.398438 174.179688 C 81.65625 176.671875 74.964844 174.03125 72.46875 168.289062 C 69.976562 162.546875 72.617188 155.851562 78.359375 153.359375 C 84.101562 150.867188 90.792969 153.503906 93.289062 159.25 C 95.78125 164.992188 93.140625 171.683594 87.398438 174.179688 Z M 87.398438 174.179688 " fill-opacity="1" fill-rule="nonzero"/></g></g></g><g clip-path="url(#adb78174b6)"><g clip-path="url(#90301cd7e1)"><g clip-path="url(#ae570e5d23)"><path fill="#2536a6" d="M 72.1875 139.144531 C 58.546875 145.070312 52.332031 160.820312 58.253906 174.460938 C 64.179688 188.101562 79.933594 194.316406 93.570312 188.390625 C 107.210938 182.46875 113.425781 166.714844 107.503906 153.074219 C 101.578125 139.4375 85.722656 133.179688 72.1875 139.144531 Z M 91.867188 184.269531 C 80.523438 189.195312 67.34375 183.996094 62.417969 172.652344 C 57.492188 161.3125 62.691406 148.132812 74.035156 143.207031 C 85.378906 138.28125 98.558594 143.480469 103.480469 154.820312 C 108.40625 166.164062 103.105469 179.304688 91.867188 184.269531 Z M 91.867188 184.269531 " fill-opacity="1" fill-rule="nonzero"/></g></g></g><g clip-path="url(#ba8517c23f)"><g clip-path="url(#602291f946)"><g clip-path="url(#5cb0cada6d)"><path fill="#36d698" d="M 84.304688 163.320312 L 153.472656 224.15625 C 154.710938 225.238281 153.796875 227.257812 152.191406 227.101562 L 109.816406 223.832031 C 109.257812 223.730469 108.683594 223.980469 108.378906 224.453125 L 81.839844 257.652344 C 80.859375 258.933594 78.757812 258.222656 78.8125 256.578125 L 81.578125 164.503906 C 81.550781 163.066406 83.273438 162.316406 84.304688 163.320312 Z M 84.304688 163.320312 " fill-opacity="1" fill-rule="nonzero"/></g></g></g><g clip-path="url(#41aae4ee2b)"><g clip-path="url(#d42e26dcc8)"><g clip-path="url(#18067158ee)"><path fill="#58ffbe" d="M 81.839844 257.652344 L 108.378906 224.453125 C 108.5625 224.289062 108.789062 224.019531 109.035156 224 L 82.597656 163.121094 C 82.023438 163.371094 81.574219 163.910156 81.535156 164.609375 L 78.8125 256.578125 C 78.757812 258.222656 80.816406 259.035156 81.839844 257.652344 Z M 81.839844 257.652344 " fill-opacity="1" fill-rule="nonzero"/></g></g></g></svg>