<svg xmlns="http://www.w3.org/2000/svg" xmlns:xlink="http://www.w3.org/1999/xlink" width="411" zoomAndPan="magnify" viewBox="0 0 308.25 154.499995" height="206" preserveAspectRatio="xMidYMid meet" version="1.0"><defs><g/><clipPath id="06e63240ed"><path d="M 44 22 L 77 22 L 77 54 L 44 54 Z M 44 22 " clip-rule="nonzero"/></clipPath><clipPath id="d9d5c09d75"><path d="M 43.601562 0 L 154.175781 43.617188 L 110.5625 154.191406 L -0.0117188 110.574219 Z M 43.601562 0 " clip-rule="nonzero"/></clipPath><clipPath id="9ac83b3fcb"><path d="M 43.601562 0 L 154.175781 43.617188 L 110.5625 154.191406 L -0.0117188 110.574219 Z M 43.601562 0 " clip-rule="nonzero"/></clipPath><clipPath id="4ecf9d0c0f"><path d="M 33 11 L 87 11 L 87 65 L 33 65 Z M 33 11 " clip-rule="nonzero"/></clipPath><clipPath id="ec1a0ff5ee"><path d="M 43.601562 0 L 154.175781 43.617188 L 110.5625 154.191406 L -0.0117188 110.574219 Z M 43.601562 0 " clip-rule="nonzero"/></clipPath><clipPath id="cc5673dfb9"><path d="M 43.601562 0 L 154.175781 43.617188 L 110.5625 154.191406 L -0.0117188 110.574219 Z M 43.601562 0 " clip-rule="nonzero"/></clipPath><clipPath id="4eccfaf366"><path d="M 56 37 L 132 37 L 132 133 L 56 133 Z M 56 37 " clip-rule="nonzero"/></clipPath><clipPath id="0e28231b8a"><path d="M 43.601562 0 L 154.175781 43.617188 L 110.5625 154.191406 L -0.0117188 110.574219 Z M 43.601562 0 " clip-rule="nonzero"/></clipPath><clipPath id="330c626b47"><path d="M 43.601562 0 L 154.175781 43.617188 L 110.5625 154.191406 L -0.0117188 110.574219 Z M 43.601562 0 " clip-rule="nonzero"/></clipPath><clipPath id="a34f4a42f0"><path d="M 56 37 L 87 37 L 87 133 L 56 133 Z M 56 37 " clip-rule="nonzero"/></clipPath><clipPath id="258b6fde0a"><path d="M 43.601562 0 L 154.175781 43.617188 L 110.5625 154.191406 L -0.0117188 110.574219 Z M 43.601562 0 " clip-rule="nonzero"/></clipPath><clipPath id="a5429ae5f1"><path d="M 43.601562 0 L 154.175781 43.617188 L 110.5625 154.191406 L -0.0117188 110.574219 Z M 43.601562 0 " clip-rule="nonzero"/></clipPath></defs><g fill="#000000" fill-opacity="1"><g transform="translate(92.166026, 57.585315)"><g><path d="M 9.824219 0.214844 C 14.261719 0.214844 17.40625 -2.800781 17.40625 -6.808594 L 17.40625 -26.625 L 13.65625 -26.625 L 13.65625 -7.109375 C 13.65625 -4.222656 11.71875 -3.101562 9.824219 -3.101562 C 7.925781 -3.101562 5.988281 -4.222656 5.988281 -7.109375 L 5.988281 -26.625 L 2.242188 -26.625 L 2.242188 -6.808594 C 2.242188 -2.800781 5.386719 0.214844 9.824219 0.214844 Z M 9.824219 0.214844 "/></g></g></g><g fill="#000000" fill-opacity="1"><g transform="translate(110.948505, 57.585315)"><g><path d="M 2.242188 0 L 5.988281 0 L 5.988281 -26.625 L 2.242188 -26.625 Z M 2.242188 0 "/></g></g></g><g fill="#000000" fill-opacity="1"><g transform="translate(118.314946, 57.585315)"><g><path d="M 9.738281 0 L 11.546875 0 L 11.546875 -3.316406 L 10.855469 -3.316406 C 8.054688 -3.316406 7.625 -5.082031 7.625 -7.152344 L 7.625 -16.5 L 11.546875 -16.5 L 11.546875 -19.816406 L 7.625 -19.816406 L 7.625 -25.503906 L 3.878906 -25.503906 L 3.878906 -19.816406 L 0.730469 -19.816406 L 0.730469 -16.5 L 3.878906 -16.5 L 3.878906 -6.851562 C 3.878906 -1.335938 6.117188 0 9.738281 0 Z M 9.738281 0 "/></g></g></g><g fill="#000000" fill-opacity="1"><g transform="translate(130.377049, 57.585315)"><g><path d="M 2.242188 -21.5 L 5.988281 -21.5 L 5.988281 -26.324219 L 2.242188 -26.324219 Z M 2.242188 0 L 5.988281 0 L 5.988281 -19.816406 L 2.242188 -19.816406 Z M 2.242188 0 "/></g></g></g><g fill="#000000" fill-opacity="1"><g transform="translate(137.743489, 57.585315)"><g><path d="M 2.242188 0 L 5.988281 0 L 5.988281 -13.355469 C 5.988281 -15.511719 7.410156 -16.714844 9.433594 -16.714844 C 11.117188 -16.714844 12.105469 -15.597656 12.105469 -13.355469 L 12.105469 0 L 15.855469 0 L 15.855469 -13.828125 C 15.855469 -14.304688 15.8125 -14.734375 15.769531 -15.164062 C 16.242188 -16.113281 17.191406 -16.714844 18.441406 -16.714844 C 20.378906 -16.714844 21.542969 -15.292969 21.542969 -13.398438 L 21.542969 0 L 25.289062 0 L 25.289062 -14.046875 C 25.289062 -17.492188 23.480469 -20.035156 19.773438 -20.035156 C 18.785156 -20.035156 16.585938 -19.949219 14.777344 -18.136719 C 13.871094 -19.429688 12.449219 -20.035156 10.511719 -20.035156 C 9.433594 -20.035156 8.1875 -20.035156 5.988281 -18.441406 L 5.515625 -19.816406 L 2.242188 -19.816406 Z M 2.242188 0 "/></g></g></g><g fill="#000000" fill-opacity="1"><g transform="translate(164.194097, 57.585315)"><g><path d="M 7.96875 0.214844 C 9.046875 0.214844 10.296875 0.214844 12.492188 -1.378906 L 12.96875 0 L 16.242188 0 L 16.242188 -19.816406 L 12.96875 -19.816406 L 12.492188 -18.441406 C 10.296875 -20.035156 9.046875 -20.035156 7.96875 -20.035156 C 4.523438 -20.035156 2.023438 -18.050781 2.023438 -13.828125 L 2.023438 -5.988281 C 2.023438 -1.765625 4.523438 0.214844 7.96875 0.214844 Z M 9.046875 -3.101562 C 7.367188 -3.101562 5.773438 -4.222656 5.773438 -6.460938 L 5.773438 -13.355469 C 5.773438 -15.597656 7.367188 -16.714844 9.046875 -16.714844 C 11.074219 -16.714844 12.492188 -15.511719 12.492188 -13.355469 L 12.492188 -6.460938 C 12.492188 -4.308594 11.074219 -3.101562 9.046875 -3.101562 Z M 9.046875 -3.101562 "/></g></g></g><g fill="#000000" fill-opacity="1"><g transform="translate(181.813431, 57.585315)"><g><path d="M 9.738281 0 L 11.546875 0 L 11.546875 -3.316406 L 10.855469 -3.316406 C 8.054688 -3.316406 7.625 -5.082031 7.625 -7.152344 L 7.625 -16.5 L 11.546875 -16.5 L 11.546875 -19.816406 L 7.625 -19.816406 L 7.625 -25.503906 L 3.878906 -25.503906 L 3.878906 -19.816406 L 0.730469 -19.816406 L 0.730469 -16.5 L 3.878906 -16.5 L 3.878906 -6.851562 C 3.878906 -1.335938 6.117188 0 9.738281 0 Z M 9.738281 0 "/></g></g></g><g fill="#000000" fill-opacity="1"><g transform="translate(193.875531, 57.585315)"><g><path d="M 9.046875 0.214844 C 12.148438 0.214844 15.421875 -1.765625 15.855469 -5.171875 L 12.148438 -5.171875 C 11.675781 -3.921875 10.382812 -3.101562 9.046875 -3.101562 C 7.109375 -3.101562 5.773438 -4.609375 5.773438 -6.546875 L 5.773438 -8.53125 L 15.984375 -8.53125 L 15.984375 -13.269531 C 15.984375 -17.105469 13.140625 -20.035156 9.046875 -20.035156 C 4.953125 -20.035156 2.023438 -17.105469 2.023438 -13.269531 L 2.023438 -6.117188 C 2.023438 -2.328125 5.257812 0.214844 9.046875 0.214844 Z M 5.773438 -11.847656 L 5.773438 -13.398438 C 5.773438 -15.292969 7.066406 -16.714844 9.003906 -16.714844 C 10.984375 -16.714844 12.234375 -15.292969 12.234375 -13.398438 L 12.234375 -11.847656 Z M 5.773438 -11.847656 "/></g></g></g><g fill="#000000" fill-opacity="1"><g transform="translate(211.021005, 57.585315)"><g><path d="M 2.242188 0 L 5.988281 0 L 5.988281 -6.9375 L 9.609375 -6.9375 C 13.398438 -6.9375 16.976562 -9.519531 16.976562 -14.046875 L 16.976562 -19.472656 C 16.976562 -24.039062 13.398438 -26.625 9.609375 -26.625 L 2.242188 -26.625 Z M 5.988281 -10.253906 L 5.988281 -23.308594 L 9.433594 -23.308594 C 11.246094 -23.308594 13.226562 -21.84375 13.226562 -18.871094 L 13.226562 -14.734375 C 13.226562 -11.71875 11.246094 -10.253906 9.433594 -10.253906 Z M 5.988281 -10.253906 "/></g></g></g><g fill="#000000" fill-opacity="1"><g transform="translate(228.726503, 57.585315)"><g><path d="M 9.609375 0.214844 C 14.046875 0.214844 17.191406 -2.800781 17.191406 -6.808594 L 17.191406 -19.90625 C 17.191406 -23.910156 14.046875 -26.925781 9.609375 -26.925781 C 5.171875 -26.925781 2.023438 -23.910156 2.023438 -19.90625 L 2.023438 -6.808594 C 2.023438 -2.800781 5.171875 0.214844 9.609375 0.214844 Z M 9.609375 -3.101562 C 7.710938 -3.101562 5.773438 -4.222656 5.773438 -7.109375 L 5.773438 -19.601562 C 5.773438 -22.488281 7.710938 -23.609375 9.609375 -23.609375 C 11.503906 -23.609375 13.441406 -22.488281 13.441406 -19.601562 L 13.441406 -7.109375 C 13.441406 -4.222656 11.503906 -3.101562 9.609375 -3.101562 Z M 9.609375 -3.101562 "/></g></g></g><g fill="#000000" fill-opacity="1"><g transform="translate(247.078194, 57.585315)"><g><path d="M 9.476562 0.214844 C 13.355469 0.214844 16.800781 -1.765625 16.800781 -6.589844 C 16.800781 -15.769531 5.34375 -13.957031 5.34375 -20.292969 C 5.34375 -22.230469 6.03125 -23.566406 8.703125 -23.566406 C 10.683594 -23.566406 12.105469 -22.230469 12.191406 -20.207031 L 12.191406 -19.730469 L 15.941406 -19.730469 L 15.941406 -20.292969 C 15.941406 -22.316406 14.433594 -26.925781 8.789062 -26.925781 C 2.714844 -26.925781 1.59375 -23.09375 1.59375 -19.992188 C 1.59375 -11.332031 13.054688 -12.796875 13.054688 -6.546875 C 13.054688 -6.03125 13.054688 -3.101562 9.433594 -3.101562 C 6.074219 -3.101562 5.429688 -4.824219 5.34375 -6.589844 L 5.34375 -7.195312 L 1.59375 -7.195312 L 1.59375 -6.589844 C 1.894531 -1.464844 5.945312 0.214844 9.476562 0.214844 Z M 9.476562 0.214844 "/></g></g></g><g clip-path="url(#06e63240ed)"><g clip-path="url(#d9d5c09d75)"><g clip-path="url(#9ac83b3fcb)"><path fill="#2536a6" d="M 53.960938 23.65625 C 45.945312 27.136719 42.300781 36.371094 45.78125 44.386719 C 49.261719 52.402344 58.5 56.046875 66.515625 52.566406 C 74.527344 49.085938 78.171875 39.847656 74.691406 31.832031 C 71.210938 23.820312 61.832031 20.238281 53.960938 23.65625 Z M 64.671875 48.515625 C 58.945312 51.003906 52.277344 48.371094 49.789062 42.648438 C 47.304688 36.921875 49.9375 30.25 55.660156 27.765625 C 61.386719 25.28125 68.054688 27.910156 70.542969 33.636719 C 73.027344 39.359375 70.394531 46.03125 64.671875 48.515625 Z M 64.671875 48.515625 " fill-opacity="1" fill-rule="nonzero"/></g></g></g><g clip-path="url(#4ecf9d0c0f)"><g clip-path="url(#ec1a0ff5ee)"><g clip-path="url(#cc5673dfb9)"><path fill="#2536a6" d="M 49.507812 13.597656 C 35.910156 19.5 29.71875 35.203125 35.621094 48.800781 C 41.527344 62.394531 57.230469 68.589844 70.824219 62.683594 C 84.421875 56.78125 90.613281 41.078125 84.710938 27.484375 C 78.804688 13.886719 63 7.652344 49.507812 13.597656 Z M 69.125 58.574219 C 57.820312 63.484375 44.683594 58.304688 39.773438 46.996094 C 34.863281 35.691406 40.042969 22.554688 51.351562 17.644531 C 62.65625 12.734375 75.792969 17.917969 80.703125 29.222656 C 85.613281 40.527344 80.328125 53.625 69.125 58.574219 Z M 69.125 58.574219 " fill-opacity="1" fill-rule="nonzero"/></g></g></g><g clip-path="url(#4eccfaf366)"><g clip-path="url(#0e28231b8a)"><g clip-path="url(#330c626b47)"><path fill="#36d698" d="M 61.585938 37.695312 L 130.53125 98.335938 C 131.765625 99.414062 130.855469 101.425781 129.253906 101.269531 L 87.015625 98.011719 C 86.460938 97.910156 85.890625 98.160156 85.582031 98.632812 L 59.128906 131.722656 C 58.152344 132.996094 56.058594 132.289062 56.113281 130.652344 L 58.867188 38.875 C 58.839844 37.441406 60.558594 36.695312 61.585938 37.695312 Z M 61.585938 37.695312 " fill-opacity="1" fill-rule="nonzero"/></g></g></g><g clip-path="url(#a34f4a42f0)"><g clip-path="url(#258b6fde0a)"><g clip-path="url(#a5429ae5f1)"><path fill="#58ffbe" d="M 59.128906 131.722656 L 85.582031 98.632812 C 85.765625 98.46875 85.992188 98.199219 86.238281 98.179688 L 59.886719 37.496094 C 59.3125 37.746094 58.867188 38.28125 58.828125 38.976562 L 56.113281 130.652344 C 56.058594 132.289062 58.113281 133.101562 59.128906 131.722656 Z M 59.128906 131.722656 " fill-opacity="1" fill-rule="nonzero"/></g></g></g></svg>