<?xml version="1.0" standalone="no"?>
<!DOCTYPE svg PUBLIC "-//W3C//DTD SVG 1.1//EN" "http://www.w3.org/Graphics/SVG/1.1/DTD/svg11.dtd">
<svg xmlns="http://www.w3.org/2000/svg" version="1.1" xmlns:xlink="http://www.w3.org/1999/xlink" xmlns:svgjs="http://svgjs.dev/svgjs" width="1500" height="242" viewBox="0 0 1500 242"><g transform="matrix(1,0,0,1,-0.9090909090909918,-0.6487980341701132)"><svg viewBox="0 0 396 64" data-background-color="#ffffff" preserveAspectRatio="xMidYMid meet" height="242" width="1500" xmlns="http://www.w3.org/2000/svg" xmlns:xlink="http://www.w3.org/1999/xlink"><g id="tight-bounds" transform="matrix(1,0,0,1,0.2400000000000091,0.17158295118548494)"><svg viewBox="0 0 395.52 63.656834097629016" height="63.656834097629016" width="395.52"><g><svg viewBox="0 0 517.3913253924334 83.271373796669" height="63.656834097629016" width="395.52"><g><rect width="4.572329248518837" height="83.271373796669" x="105.32954784936268" y="0" fill="#ea3c12" opacity="1" stroke-width="0" stroke="transparent" fill-opacity="1" class="rect-qz-0" data-fill-palette-color="primary" rx="1%" id="qz-0" data-palette-color="#ea3c12"/></g><g transform="matrix(1,0,0,1,121.87132539243345,0.20714272088723362)"><svg viewBox="0 0 395.52 82.85708835489453" height="82.85708835489453" width="395.52"><g id="textblocktransform"><svg viewBox="0 0 395.52 82.85708835489453" height="82.85708835489453" width="395.52" id="textblock"><g><svg viewBox="0 0 395.52 50.70167359050445" height="50.70167359050445" width="395.52"><g transform="matrix(1,0,0,1,0,0)"><svg width="395.52" viewBox="0.56 -30.96 246.81 31.64" height="50.70167359050445" data-palette-color="#ea3c12"><path d="M0.56-30.37L0.76-22.51 2.98-22.19 4.27-28.13 11.47-28.13 11.47-2.95 7.35-1.81 7.18 0 20.34 0 20.68-1.95 16.16-2.78 16.16-28.13 23.61-28.13 24.54-22.49 26.86-22.12 27.69-30.37 0.56-30.37ZM38.62 0.66Q41.45 0.66 43.8-0.78 46.14-2.22 47.5-4.83 48.85-7.45 48.85-10.77L48.85-10.77Q48.85-14.11 47.69-16.66 46.53-19.21 44.35-20.63 42.16-22.05 39.21-22.05L39.21-22.05Q36.42-22.05 33.99-20.65 31.56-19.26 30.08-16.61 28.59-13.96 28.59-10.4L28.59-10.4Q28.59-7.23 29.77-4.72 30.95-2.22 33.21-0.78 35.47 0.66 38.62 0.66L38.62 0.66ZM38.18-19.48Q40.35-19.48 41.78-17.88 43.21-16.28 43.86-13.84 44.5-11.4 44.5-8.76L44.5-8.76Q44.5-6.96 43.94-5.35 43.38-3.74 42.23-2.72 41.09-1.71 39.45-1.71L39.45-1.71Q37.18-1.71 35.72-3.2 34.25-4.69 33.59-7.06 32.93-9.42 32.93-12.13L32.93-12.13Q32.93-14.14 33.49-15.81 34.06-17.48 35.24-18.48 36.42-19.48 38.18-19.48L38.18-19.48ZM62.42 0L62.69-1.93 59.2-2.78 59.2-16.43Q60.1-17.46 61.37-18.01 62.64-18.55 64.01-18.55L64.01-18.55Q65.18-18.55 66.13-18.02 67.08-17.48 67.63-16.5 68.18-15.53 68.18-14.28L68.18-14.28 68.18-2.78 64.99-1.81 64.72 0 75.53 0 75.78-1.93 72.16-2.78 72.16-16.11Q73.24-17.26 74.3-17.91 75.36-18.55 76.83-18.55L76.83-18.55Q78.73-18.55 79.83-17.33 80.93-16.11 80.93-14.28L80.93-14.28 80.93-2.76 77.88-1.78 77.7 0 88.08 0 88.4-1.93 85.03-2.81 85.03-14.87Q85.03-21.68 79.27-21.68L79.27-21.68Q77.09-21.68 75.23-20.59 73.36-19.51 72.07-17.85L72.07-17.85 71.77-17.85Q71.24-19.92 69.73-20.9 68.23-21.88 66.38-21.88L66.38-21.88Q64.23-21.88 62.29-20.78 60.35-19.68 59.05-18.07L59.05-18.07 58.83-18.07 59.27-21.14 58.83-21.66 51.41-20.63 51.17-18.8 55.07-17.55 55.07-2.78 51.41-1.81 51.17 0 62.42 0ZM100.09 0.66Q102.92 0.66 105.27-0.78 107.61-2.22 108.96-4.83 110.32-7.45 110.32-10.77L110.32-10.77Q110.32-14.11 109.16-16.66 108-19.21 105.82-20.63 103.63-22.05 100.68-22.05L100.68-22.05Q97.89-22.05 95.46-20.65 93.03-19.26 91.55-16.61 90.06-13.96 90.06-10.4L90.06-10.4Q90.06-7.23 91.24-4.72 92.42-2.22 94.68-0.78 96.94 0.66 100.09 0.66L100.09 0.66ZM99.65-19.48Q101.82-19.48 103.25-17.88 104.68-16.28 105.33-13.84 105.97-11.4 105.97-8.76L105.97-8.76Q105.97-6.96 105.41-5.35 104.85-3.74 103.7-2.72 102.56-1.71 100.92-1.71L100.92-1.71Q98.65-1.71 97.18-3.2 95.72-4.69 95.06-7.06 94.4-9.42 94.4-12.13L94.4-12.13Q94.4-14.14 94.96-15.81 95.52-17.48 96.71-18.48 97.89-19.48 99.65-19.48L99.65-19.48ZM126.04 0L126.28-2.12 120.6-2.95 120.6-12.3Q120.84-14.04 121.56-15.23 122.28-16.43 123.16-17.03 124.04-17.63 124.77-17.63L124.77-17.63Q125.48-17.63 126.26-17.37 127.04-17.11 127.75-16.67L127.75-16.67Q129.14-17.85 129.14-19.38L129.14-19.38Q129.14-20.48 128.38-21.3 127.63-22.12 126.43-22.12L126.43-22.12Q125.33-22.12 124.21-21.37 123.09-20.63 122.08-19.14 121.08-17.65 120.45-15.53L120.45-15.53 119.99-15.53 120.47-21.14 119.91-21.73 112.91-20.83 112.56-18.97 116.54-17.77 116.54-2.78 112.81-1.81 112.56 0 126.04 0ZM143.98 0L144.23-2.12 138.54-2.95 138.54-12.3Q138.78-14.04 139.5-15.23 140.22-16.43 141.1-17.03 141.98-17.63 142.71-17.63L142.71-17.63Q143.42-17.63 144.2-17.37 144.98-17.11 145.69-16.67L145.69-16.67Q147.08-17.85 147.08-19.38L147.08-19.38Q147.08-20.48 146.33-21.3 145.57-22.12 144.37-22.12L144.37-22.12Q143.27-22.12 142.15-21.37 141.03-20.63 140.03-19.14 139.03-17.65 138.39-15.53L138.39-15.53 137.93-15.53 138.42-21.14 137.85-21.73 130.85-20.83 130.51-18.97 134.48-17.77 134.48-2.78 130.75-1.81 130.51 0 143.98 0ZM158.77 0.66Q161.61 0.66 163.95-0.78 166.29-2.22 167.65-4.83 169-7.45 169-10.77L169-10.77Q169-14.11 167.84-16.66 166.68-19.21 164.5-20.63 162.31-22.05 159.36-22.05L159.36-22.05Q156.58-22.05 154.15-20.65 151.72-19.26 150.23-16.61 148.74-13.96 148.74-10.4L148.74-10.4Q148.74-7.23 149.92-4.72 151.11-2.22 153.37-0.78 155.62 0.66 158.77 0.66L158.77 0.66ZM158.33-19.48Q160.51-19.48 161.94-17.88 163.36-16.28 164.01-13.84 164.66-11.4 164.66-8.76L164.66-8.76Q164.66-6.96 164.1-5.35 163.53-3.74 162.39-2.72 161.24-1.71 159.6-1.71L159.6-1.71Q157.33-1.71 155.87-3.2 154.4-4.69 153.74-7.06 153.09-9.42 153.09-12.13L153.09-12.13Q153.09-14.14 153.65-15.81 154.21-17.48 155.39-18.48 156.58-19.48 158.33-19.48L158.33-19.48ZM170.22-19.51L173.03-18.51 178.84 0.68 181.75 0.24 185.82-14.31 190.29 0.68 193.2 0.24 198.62-18.55 201.25-19.56 201.55-21.36 192.19-21.36 191.95-19.51 195.61-18.51 192.05-5.71 191.54-8.42 187.95-20.24 184.55-19.8 180.62-5.86 180.04-8.79 177.08-18.55 180.38-19.56 180.6-21.36 170.47-21.36 170.22-19.51ZM200.71 0L212.14 0 212.41-1.95 207.87-3.03 210.33-10.55 220.56-10.55 223.22-3.15 219.05-1.81 218.75 0 231.33 0 231.55-1.95 228.2-3.03 218.68-30.96 214.99-30.2 204.57-3.15 200.93-1.81 200.71 0ZM211.26-13.04L215.8-25.24 219.85-13.04 211.26-13.04ZM233.77-28.52L238.21-27.49 238.21-2.95 234.13-1.81 233.94 0 247.12 0 247.37-1.95 242.95-2.78 242.95-27.59 247.07-28.52 247.32-30.37 234.04-30.37 233.77-28.52Z" opacity="1" transform="matrix(1,0,0,1,0,0)" fill="#ea3c12" class="wordmark-text-0" data-fill-palette-color="primary" id="text-0"/></svg></g></svg></g><g transform="matrix(1,0,0,1,0,62.67112188505638)"><svg viewBox="0 0 232.209792 20.185966469838153" height="20.185966469838153" width="232.209792"><g transform="matrix(1,0,0,1,0,0)"><svg width="232.209792" viewBox="0.05 -34.08 398.19 34.62" height="20.185966469838153" data-palette-color="#138beb"><path d="M8.35 0L0.15 0 0.05-1.86 2.44-2.54 12.5-27.83 15.33-29.54 25.98-2.54 28.42-1.86 28.27 0 18.41 0 18.31-1.86 21.29-2.54 18.41-9.77 17.87-11.28 12.55-24.56 13.67-25.2 8.59-11.28 8.06-9.81 5.47-2.54 8.45-1.86 8.35 0ZM6.98-9.03L6.98-9.03 6.98-11.62Q7.91-11.57 9.52-11.52 11.13-11.47 13.48-11.47L13.48-11.47Q15.77-11.47 17.41-11.52 19.04-11.57 19.92-11.62L19.92-11.62 19.92-9.03Q18.26-9.08 16.63-9.11 14.99-9.13 13.48-9.13L13.48-9.13Q12.01-9.13 10.42-9.11 8.84-9.08 6.98-9.03ZM41.21 0L30.81 0 30.71-1.86 33.69-2.54Q33.79-2.78 33.81-3.66 33.84-4.54 33.86-6.05 33.88-7.57 33.88-9.72L33.88-9.72 33.88-18.9Q33.88-21.09 33.86-22.63 33.84-24.17 33.81-25.07 33.79-25.98 33.69-26.12L33.69-26.12 30.71-26.81 30.81-28.66 41.21-28.66 41.31-26.81 38.33-26.12Q38.23-25.98 38.16-25.17 38.08-24.37 38.06-22.85 38.03-21.34 38.03-18.9L38.03-18.9 38.03-9.72Q38.03-7.37 38.06-5.86 38.08-4.35 38.16-3.54 38.23-2.73 38.33-2.54L38.33-2.54 41.31-1.86 41.21 0ZM65.52-1.86L65.42 0 54.63 0 54.48-1.76 57.51-2.49Q57.56-2.98 57.59-3.54 57.61-4.1 57.61-4.91 57.61-5.71 57.61-6.86 57.61-8.01 57.61-9.67L57.61-9.67 57.56-18.46 57.56-24.02Q57.56-27.15 58.54-29.39 59.51-31.64 61.27-32.86 63.03-34.08 65.37-34.08L65.37-34.08Q67.33-34.08 68.67-33.2 70.01-32.32 70.01-31.05L70.01-31.05Q70.01-30.37 69.57-29.96 69.13-29.54 68.4-29.54L68.4-29.54Q67.18-29.54 66.11-30.62L66.11-30.62 63.86-32.76 65.03-32.47Q63.22-32.47 62.25-30.62 61.27-28.76 61.27-25.39L61.27-25.39 61.27-20.9 61.32-18.46 61.37-10.06Q61.37-7.91 61.42-5.79 61.47-3.66 61.52-2.49L61.52-2.49 65.52-1.86ZM66.69-18.46L54.05-18.46 54.05-20.07 57.56-20.9 61.17-20.9 66.69-20.9 66.69-18.46ZM80.02 0.39L80.02 0.39Q76.85 0.39 74.48-0.98 72.11-2.34 70.79-4.81 69.47-7.28 69.47-10.45L69.47-10.45Q69.47-13.77 70.91-16.21 72.35-18.65 74.82-20.02 77.28-21.39 80.21-21.39L80.21-21.39Q83.24-21.39 85.49-20.04 87.73-18.7 89-16.28 90.27-13.87 90.27-10.64L90.27-10.64Q90.27-7.57 88.91-5.05 87.54-2.54 85.22-1.07 82.9 0.39 80.02 0.39ZM80.51-1.9L80.51-1.9Q82.17-1.9 83.39-2.91 84.61-3.91 85.29-5.69 85.98-7.47 85.98-9.77L85.98-9.77Q85.98-13.96 84.24-16.58 82.51-19.19 79.68-19.19L79.68-19.19Q77.04-19.19 75.45-17.02 73.87-14.84 73.87-11.18L73.87-11.18Q73.87-8.45 74.72-6.35 75.58-4.25 77.09-3.08 78.6-1.9 80.51-1.9ZM105.16 0L93.88 0 93.74-1.76 96.76-2.49Q96.81-2.73 96.86-3.34 96.91-3.96 96.94-5.05 96.96-6.15 96.96-7.71L96.96-7.71 97.01-11.52Q97.01-13.13 96.89-14.72 96.76-16.31 96.62-17.19L96.62-17.19 93.49-17.87 93.49-19.48 100.04-21.29 100.72-20.61 100.52-16.5 100.67-16.46Q102.14-19.29 103.63-20.29 105.11-21.29 106.48-21.29L106.48-21.29Q107.6-21.29 108.36-20.7 109.12-20.12 109.12-19.04L109.12-19.04Q109.12-17.92 108.31-17.29 107.51-16.65 106.29-16.65L106.29-16.65Q105.41-16.65 104.6-17.04 103.8-17.43 103.06-18.12L103.06-18.12 103.94-17.82Q103.06-17.24 102.23-16.16 101.4-15.09 100.67-13.57L100.67-13.57 100.72-9.03Q100.77-7.81 100.82-6.52 100.87-5.22 100.92-4.13 100.96-3.03 101.01-2.49L101.01-2.49 105.26-1.86 105.16 0ZM128.99 0.39L128.99 0.39Q127.03 0.39 125.52-0.39 124.01-1.17 123.15-2.39 122.3-3.61 122.3-4.93L122.3-4.93Q122.3-6.54 123.35-7.62 124.4-8.69 126.89-9.52L126.89-9.52 134.31-12.01 134.31-14.5Q134.31-15.72 133.58-16.72 132.84-17.72 131.62-18.31 130.4-18.9 128.89-18.9L128.89-18.9Q127.67-18.9 127.23-18.38 126.79-17.87 126.69-16.36L126.69-16.36 126.59-14.31Q124.84-13.92 123.62-14.43 122.39-14.94 122.39-16.11L122.39-16.11Q122.39-16.94 123.13-17.77 123.86-18.6 125.03-19.36 126.2-20.12 127.55-20.65 128.89-21.19 130.21-21.39L130.21-21.39Q133.77-21.39 135.97-19.51 138.17-17.63 138.21-14.5L138.21-14.5 138.12-6.3Q138.12-5.42 138.19-4.52 138.26-3.61 138.41-3.17L138.41-3.17 141.54-2.59 141.54-1.07 139.14-0.2Q138.46 0.1 137.87 0.24 137.29 0.39 136.9 0.39L136.9 0.39Q135.38 0.39 134.94-1.32L134.94-1.32 134.41-3.22 135.14-3.22Q133.53-1.42 132.04-0.51 130.55 0.39 128.99 0.39ZM130.3-2.49L130.3-2.49Q131.43-2.49 132.43-3 133.43-3.52 134.31-4.59L134.31-4.59 134.31-9.72 128.84-8.25Q127.67-7.96 127.16-7.32 126.64-6.69 126.64-5.71L126.64-5.71Q126.64-4.49 127.74-3.49 128.84-2.49 130.3-2.49ZM155.79-1.32L155.79-1.32Q155.89-2.98 155.89-4.25 155.89-5.52 155.89-6.74 155.89-7.96 155.89-9.33L155.89-9.33 155.89-17.72Q155.89-19.43 155.86-21.34 155.84-23.24 155.81-25.02 155.79-26.81 155.76-28.1 155.74-29.39 155.74-29.88L155.74-29.88 152.13-30.32 152.03-31.88 158.91-33.89 159.84-33.2Q159.79-31.15 159.74-29.1 159.69-27.05 159.65-24.37 159.6-21.68 159.55-17.72L159.55-17.72 159.69-17.68Q160.87-19.34 162.67-20.36 164.48-21.39 166.63-21.39L166.63-21.39Q169.07-21.39 171.1-20.19 173.12-18.99 174.39-16.77 175.66-14.55 175.66-11.38L175.66-11.38Q175.66-7.91 174.03-5.25 172.39-2.59 169.66-1.1 166.92 0.39 163.6 0.39L163.6 0.39Q161.5 0.39 159.43-0.1 157.35-0.59 155.79-1.32ZM164.67-2.1L164.67-2.1Q167.56-2.1 169.44-4.27 171.32-6.45 171.36-10.5L171.36-10.5Q171.46-14.4 169.53-16.28 167.6-18.16 164.87-18.16L164.87-18.16Q163.41-18.16 162.01-17.5 160.62-16.85 159.6-15.48L159.6-15.48 159.6-3.61Q160.62-2.93 161.84-2.51 163.06-2.1 164.67-2.1ZM189.72 0.39L189.72 0.39Q186.89 0.39 184.59-0.88 182.3-2.15 180.98-4.52 179.66-6.88 179.66-10.11L179.66-10.11Q179.66-13.57 181.08-16.11 182.49-18.65 184.79-20.04 187.08-21.44 189.72-21.39L189.72-21.39Q193.53-21.34 195.68-18.87 197.83-16.41 197.83-11.82L197.83-11.82 197.83-10.94 182.84-10.94 182.84-13.09 194.6-13.09 194.07-12.45 194.07-13.48Q194.07-16.26 192.82-17.8 191.58-19.34 189.33-19.34L189.33-19.34Q187.96-19.34 186.69-18.53 185.42-17.72 184.64-16.09 183.86-14.45 183.86-11.96L183.86-11.96 183.86-11.38Q183.86-7.37 185.84-5.13 187.82-2.88 190.94-2.88L190.94-2.88Q192.7-2.88 194.04-3.54 195.39-4.2 196.65-5.76L196.65-5.76 197.88-4.64Q196.51-2.1 194.41-0.85 192.31 0.39 189.72 0.39ZM215.55-4.25L216.43-3.03Q215.5-1.42 213.89-0.51 212.28 0.39 210.52 0.39L210.52 0.39Q207.59 0.39 205.66-1.42 203.73-3.22 203.73-6.84L203.73-6.84 203.88-18.51 200.46-18.51 200.46-19.53 206.76-25.24 207.69-25.24 207.59-19.63 207.54-7.62Q207.54-5.08 208.64-3.86 209.74-2.64 211.74-2.64L211.74-2.64Q212.86-2.64 213.82-3.1 214.77-3.56 215.55-4.25L215.55-4.25ZM214.96-18.51L205.83-18.51 205.83-20.95 214.96-20.95 214.96-18.51ZM232.1-4.25L232.98-3.03Q232.05-1.42 230.44-0.51 228.83 0.39 227.07 0.39L227.07 0.39Q224.14 0.39 222.21-1.42 220.28-3.22 220.28-6.84L220.28-6.84 220.43-18.51 217.01-18.51 217.01-19.53 223.31-25.24 224.24-25.24 224.14-19.63 224.09-7.62Q224.09-5.08 225.19-3.86 226.29-2.64 228.29-2.64L228.29-2.64Q229.41-2.64 230.37-3.1 231.32-3.56 232.1-4.25L232.1-4.25ZM231.51-18.51L222.38-18.51 222.38-20.95 231.51-20.95 231.51-18.51ZM244.45 0.39L244.45 0.39Q241.62 0.39 239.32-0.88 237.03-2.15 235.71-4.52 234.39-6.88 234.39-10.11L234.39-10.11Q234.39-13.57 235.81-16.11 237.22-18.65 239.52-20.04 241.81-21.44 244.45-21.39L244.45-21.39Q248.26-21.34 250.41-18.87 252.56-16.41 252.56-11.82L252.56-11.82 252.56-10.94 237.57-10.94 237.57-13.09 249.33-13.09 248.8-12.45 248.8-13.48Q248.8-16.26 247.55-17.8 246.31-19.34 244.06-19.34L244.06-19.34Q242.69-19.34 241.42-18.53 240.15-17.72 239.37-16.09 238.59-14.45 238.59-11.96L238.59-11.96 238.59-11.38Q238.59-7.37 240.57-5.13 242.55-2.88 245.67-2.88L245.67-2.88Q247.43-2.88 248.77-3.54 250.11-4.2 251.38-5.76L251.38-5.76 252.6-4.64Q251.24-2.1 249.14-0.85 247.04 0.39 244.45 0.39ZM267.2 0L255.92 0 255.78-1.76 258.8-2.49Q258.85-2.73 258.9-3.34 258.95-3.96 258.97-5.05 259-6.15 259-7.71L259-7.71 259.05-11.52Q259.05-13.13 258.92-14.72 258.8-16.31 258.66-17.19L258.66-17.19 255.53-17.87 255.53-19.48 262.07-21.29 262.76-20.61 262.56-16.5 262.71-16.46Q264.17-19.29 265.66-20.29 267.15-21.29 268.52-21.29L268.52-21.29Q269.64-21.29 270.4-20.7 271.16-20.12 271.16-19.04L271.16-19.04Q271.16-17.92 270.35-17.29 269.55-16.65 268.32-16.65L268.32-16.65Q267.45-16.65 266.64-17.04 265.83-17.43 265.1-18.12L265.1-18.12 265.98-17.82Q265.1-17.24 264.27-16.16 263.44-15.09 262.71-13.57L262.71-13.57 262.76-9.03Q262.81-7.81 262.86-6.52 262.9-5.22 262.95-4.13 263-3.03 263.05-2.49L263.05-2.49 267.3-1.86 267.2 0ZM307.58 0.2L306.06 0.2 298.59-18.51 296.1-19.24 296.2-21 305.18-21 305.28-19.24 302.74-18.51 308.41-3.66 307.19-3.61 313-18.51 310.46-19.24 310.56-21 318.12-21 318.22-19.24 315.93-18.51 307.58 0.2ZM293.37 0.2L291.85 0.2 283.94-18.51 281.65-19.24 281.75-21 290.78-21 290.88-19.24 288.39-18.51 294.44-3.66 292.98-3.61 299.42-18.95 300.74-15.92 293.37 0.2ZM330.33 0.39L330.33 0.39Q327.15 0.39 324.79-0.98 322.42-2.34 321.1-4.81 319.78-7.28 319.78-10.45L319.78-10.45Q319.78-13.77 321.22-16.21 322.66-18.65 325.13-20.02 327.59-21.39 330.52-21.39L330.52-21.39Q333.55-21.39 335.8-20.04 338.04-18.7 339.31-16.28 340.58-13.87 340.58-10.64L340.58-10.64Q340.58-7.57 339.22-5.05 337.85-2.54 335.53-1.07 333.21 0.39 330.33 0.39ZM330.82-1.9L330.82-1.9Q332.48-1.9 333.7-2.91 334.92-3.91 335.6-5.69 336.29-7.47 336.29-9.77L336.29-9.77Q336.29-13.96 334.55-16.58 332.82-19.19 329.99-19.19L329.99-19.19Q327.35-19.19 325.76-17.02 324.18-14.84 324.18-11.18L324.18-11.18Q324.18-8.45 325.03-6.35 325.89-4.25 327.4-3.08 328.91-1.9 330.82-1.9ZM355.47 0L344.19 0 344.05-1.76 347.07-2.49Q347.12-2.73 347.17-3.34 347.22-3.96 347.25-5.05 347.27-6.15 347.27-7.71L347.27-7.71 347.32-11.52Q347.32-13.13 347.2-14.72 347.07-16.31 346.93-17.19L346.93-17.19 343.8-17.87 343.8-19.48 350.35-21.29 351.03-20.61 350.83-16.5 350.98-16.46Q352.45-19.29 353.93-20.29 355.42-21.29 356.79-21.29L356.79-21.29Q357.91-21.29 358.67-20.7 359.43-20.12 359.43-19.04L359.43-19.04Q359.43-17.92 358.62-17.29 357.82-16.65 356.6-16.65L356.6-16.65Q355.72-16.65 354.91-17.04 354.11-17.43 353.37-18.12L353.37-18.12 354.25-17.82Q353.37-17.24 352.54-16.16 351.71-15.09 350.98-13.57L350.98-13.57 351.03-9.03Q351.08-7.81 351.13-6.52 351.18-5.22 351.22-4.13 351.27-3.03 351.32-2.49L351.32-2.49 355.57-1.86 355.47 0ZM371.78 0L361.38 0 361.28-1.81 364.45-2.49Q364.55-3.03 364.58-4.13 364.6-5.22 364.65-7.08 364.7-8.94 364.7-11.62L364.7-11.62 364.7-17.72Q364.7-19.53 364.67-21.48 364.65-23.44 364.63-25.2 364.6-26.95 364.55-28.2 364.5-29.44 364.5-29.83L364.5-29.83 360.89-30.32 360.79-31.88 367.77-33.89 368.7-33.2Q368.65-31.1 368.6-29.08 368.56-27.05 368.53-24.56 368.51-22.07 368.51-18.55L368.51-18.55 368.46-10.69Q368.46-7.81 368.53-5.49 368.6-3.17 368.7-2.49L368.7-2.49 371.88-1.81 371.78 0ZM398.24-1.03L391.84 0.54 391.11-0.1 391.16-3.27 391.01-3.32Q389.6-1.27 388.04-0.44 386.47 0.39 384.76 0.39L384.76 0.39Q381.98 0.39 379.78-0.93 377.59-2.25 376.34-4.52 375.1-6.79 375.1-9.77L375.1-9.77Q375.1-12.35 375.98-14.5 376.85-16.65 378.39-18.19 379.93-19.73 381.88-20.56 383.84-21.39 385.94-21.39L385.94-21.39Q387.25-21.39 388.7-21.04 390.14-20.7 391.11-19.97L391.11-19.97Q391.11-20.85 391.09-22.27 391.06-23.68 391.04-25.22 391.01-26.76 390.99-27.95 390.97-29.15 390.92-29.59L390.92-29.59 387.11-30.27 387.01-31.88 394.19-33.89 395.07-33.2Q394.97-30.18 394.92-27.34 394.87-24.51 394.87-21.44L394.87-21.44 394.82-10.21Q394.82-7.71 394.95-5.93 395.07-4.15 395.12-3.42L395.12-3.42 398.24-2.64 398.24-1.03ZM385.99-2.88L385.99-2.88Q387.35-2.88 388.6-3.49 389.84-4.1 391.11-5.66L391.11-5.66 391.11-16.16Q390.18-17.82 388.77-18.51 387.35-19.19 385.94-19.19L385.94-19.19Q382.86-19.19 381.13-16.92 379.39-14.65 379.39-11.04L379.39-11.04Q379.39-7.13 381.32-5 383.25-2.88 385.99-2.88Z" opacity="1" transform="matrix(1,0,0,1,0,0)" fill="#138beb" class="slogan-text-1" data-fill-palette-color="secondary" id="text-1"/></svg></g></svg></g></svg></g></svg></g><g transform="matrix(1,0,0,1,0,0.20714272088723362)"><svg viewBox="0 0 93.36009955481076 82.85708835489453" height="82.85708835489453" width="93.36009955481076"><g><svg xmlns="http://www.w3.org/2000/svg" xmlns:xlink="http://www.w3.org/1999/xlink" version="1.1" x="0" y="0" viewBox="1 4.6000000000000005 64 56.79999999999999" enable-background="new 0 0 66 66" xml:space="preserve" height="82.85708835489453" width="93.36009955481076" class="icon-icon-0" data-fill-palette-color="accent" id="icon-0"><g fill="#ea3c12" data-fill-palette-color="accent"><path d="M62.5 41v-3c0-0.6-0.4-1-1-1h-7.3c0.5-1.1 0.8-2.4 0.7-3.6h2.2c0.4 1 1.4 1.8 2.6 1.8 1.5 0 2.8-1.2 2.8-2.8 0-1.5-1.3-2.8-2.8-2.8-1.2 0-2.2 0.7-2.6 1.8h-2.5c-0.3-1.1-1.2-3-2.1-4.4h9.7c0.6 0 1-0.4 1-1v-3c1-0.4 1.8-1.4 1.8-2.6 0-1.5-1.3-2.8-2.8-2.8-1.5 0-2.8 1.2-2.8 2.8 0 1.2 0.7 2.2 1.8 2.6v2H50.8c-1.5-1.3-3.1-1.6-4.4-1.4-0.9-1.3-3.3-4.3-7.1-5.3V11h2c0.4 1 1.4 1.8 2.6 1.8 1.5 0 2.8-1.3 2.8-2.8 0-1.5-1.3-2.8-2.8-2.8-1.2 0-2.2 0.7-2.6 1.8h-3c-0.6 0-1 0.4-1 1v8c-1.2-0.1-2.4 0-3.6 0.3v-5.1c1-0.4 1.8-1.4 1.8-2.6 0-1.5-1.2-2.8-2.8-2.8-1.5 0-2.8 1.3-2.8 2.8 0 1.2 0.7 2.2 1.8 2.6V19c-0.8 0.3-1.5 0.7-2.3 1.2-0.5-0.2-1.2-0.5-2.1-0.6V7.4c0-0.6-0.4-1-1-1h-3c-0.4-1-1.4-1.8-2.6-1.8-1.5 0-2.8 1.3-2.8 2.8 0 1.5 1.2 2.8 2.8 2.8 1.2 0 2.2-0.7 2.6-1.8h2v11.1c-3 0.3-5.3 2.4-6.9 5.1-0.3 0.1-0.6 0.2-1 0.4H4.8v-2c1-0.4 1.8-1.4 1.8-2.6 0-1.5-1.3-2.8-2.8-2.8-1.5 0-2.8 1.2-2.8 2.8 0 1.2 0.7 2.2 1.8 2.6v3c0 0.6 0.4 1 1 1H14c-0.9 0.8-1.8 1.8-2.2 3-0.1 0.4-0.2 0.9-0.2 1.3H8.9c-0.4-1-1.4-1.8-2.6-1.8-1.5 0-2.8 1.2-2.8 2.8 0 1.5 1.3 2.8 2.8 2.8 1.2 0 2.2-0.7 2.6-1.8h2.9c0.2 0.8 0.6 1.6 1.2 2.4-0.1 0.3-0.2 0.7-0.4 1.2H4.5c-0.6 0-1 0.4-1 1v3c-1 0.4-1.8 1.4-1.8 2.6 0 1.5 1.3 2.8 2.8 2.8 1.5 0 2.8-1.3 2.8-2.8 0-1.2-0.7-2.2-1.8-2.6v-2h6.8c-0.2 2.4 0.4 5.6 3.8 8.2 1.9 1.5 4.1 4.2 9.1 3.1v6.7h-2c-0.4-1-1.4-1.8-2.6-1.8-1.5 0-2.8 1.3-2.8 2.8 0 1.5 1.3 2.8 2.8 2.8 1.2 0 2.2-0.7 2.6-1.8h3c0.6 0 1-0.4 1-1v-8.3c0.9-0.4 2-0.9 3-1.6 0.1 0 0.4 0 0.6 0v5.5c-1 0.4-1.8 1.4-1.8 2.6 0 1.5 1.2 2.8 2.8 2.8 1.5 0 2.8-1.3 2.8-2.8 0-1.2-0.7-2.2-1.8-2.6V48c1.3-0.1 2.8-0.2 4.4-0.6v11.2c0 0.6 0.4 1 1 1h3c0.4 1 1.4 1.8 2.6 1.8 1.5 0 2.8-1.3 2.8-2.8 0-1.5-1.2-2.8-2.8-2.8-1.2 0-2.2 0.7-2.6 1.8h-2V46.9c2.5-0.8 4.9-2.3 5.9-4.8 3.1 0 5.8-0.7 7.8-3.1h7.5v2c-1 0.4-1.8 1.4-1.8 2.6 0 1.5 1.3 2.8 2.8 2.8 1.5 0 2.8-1.3 2.8-2.8C64.3 42.4 63.5 41.4 62.5 41zM62.2 19.6c0.4 0 0.8 0.4 0.8 0.8 0 0.4-0.4 0.8-0.8 0.8-0.4 0-0.8-0.4-0.8-0.8C61.4 19.9 61.8 19.6 62.2 19.6zM43.9 9.2c0.4 0 0.8 0.4 0.8 0.8 0 0.4-0.4 0.8-0.8 0.8-0.4 0-0.8-0.4-0.8-0.8C43.1 9.6 43.4 9.2 43.9 9.2zM32.6 9.8c0.4 0 0.8 0.4 0.8 0.8 0 0.4-0.4 0.8-0.8 0.8-0.4 0-0.8-0.4-0.8-0.8C31.8 10.1 32.2 9.8 32.6 9.8zM20.6 8.2c-0.4 0-0.8-0.4-0.8-0.8 0-0.4 0.4-0.8 0.8-0.8 0.4 0 0.8 0.4 0.8 0.8C21.4 7.8 21 8.2 20.6 8.2zM3.8 19.6c0.4 0 0.8 0.4 0.8 0.8 0 0.4-0.4 0.8-0.8 0.8-0.4 0-0.8-0.4-0.8-0.8C3 19.9 3.4 19.6 3.8 19.6zM6.3 33.2c-0.4 0-0.8-0.4-0.8-0.8 0-0.4 0.4-0.8 0.8-0.8s0.8 0.4 0.8 0.8C7.1 32.8 6.7 33.2 6.3 33.2zM4.5 44.4c-0.4 0-0.8-0.4-0.8-0.8 0-0.4 0.4-0.8 0.8-0.8s0.8 0.4 0.8 0.8C5.3 44.1 4.9 44.4 4.5 44.4zM20.6 58.7c-0.4 0-0.8-0.4-0.8-0.8s0.4-0.8 0.8-0.8c0.4 0 0.8 0.4 0.8 0.8S21.1 58.7 20.6 58.7zM43.9 57.8c0.4 0 0.8 0.4 0.8 0.8 0 0.4-0.4 0.8-0.8 0.8-0.4 0-0.8-0.4-0.8-0.8C43.1 58.2 43.5 57.8 43.9 57.8zM59.7 31.6c0.4 0 0.8 0.4 0.8 0.8 0 0.4-0.4 0.8-0.8 0.8-0.4 0-0.8-0.4-0.8-0.8C58.9 31.9 59.3 31.6 59.7 31.6zM31.9 56.9c-0.4 0-0.8-0.4-0.8-0.8 0-0.4 0.4-0.8 0.8-0.8 0.4 0 0.8 0.4 0.8 0.8C32.7 56.5 32.3 56.9 31.9 56.9zM45.7 40.1c0.1-0.7 0-1.7-0.4-2.6 2-1.1 3.6-3.6 3.8-3.9 0.3-0.5 0.1-1.1-0.3-1.4-0.5-0.3-1.1-0.1-1.4 0.3-0.6 1-2.1 2.9-3.3 3.3-2-1.7-5.5-2.3-10.7-1.7-2-1.4-1.3-4.9-1.3-4.9 0.1-0.5-0.2-1.1-0.8-1.2-0.5-0.1-1.1 0.2-1.2 0.8 0 0 0 0.2-0.1 0.4-2.7-1.8-2.5-5.3-4.2-4.6-0.5 0.2-0.8 0.8-0.6 1.3 0.2 0.5 1.9 4.5 4.7 5.5 0.1 1.1 0.4 2.4 1.3 3.5-7.4 2.7-11.2-1.5-11.9 0.6-0.2 0.5 0.1 1.1 0.6 1.3 1.6 0.5 3 0.8 4.4 0.9 1.6 3.2-0.2 4.9-3.7 5.5-1.3 0.2-1 2.2 0.3 2 2.8-0.5 4.6-1.5 5.4-3.1 3.6-0.6 7.1-0.7 7.7-0.2 0.9 1 2.4-0.4 1.5-1.3-1.2-1.3-5.5-1-8.7-0.5 0-0.8-0.2-1.5-0.4-2.1 3.6-0.1 6.1-1.3 6.9-1.7 6.4-0.7 8.8 0.5 9.7 1.6 2 2.6-0.8 9-13.1 8.3l0 0-5.3-0.4c-1.3-0.1-1.5 1.9-0.2 2l1.9 0.2c-5.3 2.2-7.5-0.8-9.2-2.1-4.7-3.6-2.8-8.5-2.4-9.3l2.7-2.6c1-0.9-0.4-2.4-1.4-1.4l-2 1.9c-2-3.4 0.1-5.7 3.8-7.3 0.3 1.8 1.8 4.8 7.4 6.1 1.3 0.3 1.8-1.6 0.5-1.9-6-1.5-6.1-4.6-6-5.3 1.3-2.3 2.9-3.6 4.7-4.1 3.7-1 5.2 1.6 6.7 2.8 1 0.9 2.3-0.6 1.3-1.5l-1.7-1.5c5.2-2.9 9.8-1.6 13.2 2.7-1 0.5-2.4 1.4-3.5 3.3C39 27 37.2 25 36.7 24.1c-0.8-1.1-2.4 0-1.6 1.1 0.1 0.1 2.2 3.2 4.9 4.1-0.1 0.2-0.1 0.4-0.2 0.6-0.4 1.3 1.5 1.8 1.9 0.6 1.6-5.3 7.3-7.9 10.8 0.8C53.9 34.9 52 39.8 45.7 40.1zM61.5 44.4c-0.4 0-0.8-0.4-0.8-0.8 0-0.4 0.4-0.8 0.8-0.8 0.4 0 0.8 0.4 0.8 0.8C62.3 44.1 61.9 44.4 61.5 44.4z" fill="#ea3c12" data-fill-palette-color="accent"/></g></svg></g></svg></g></svg></g><defs/></svg><rect width="395.52" height="63.656834097629016" fill="none" stroke="none" visibility="hidden"/></g></svg></g></svg>